G04 #@! TF.FileFunction,Soldermask,Top*
%FSLAX46Y46*%
G04 Gerber Fmt 4.6, Leading zero omitted, Abs format (unit mm)*
G04 Created by KiCad (PCBNEW 4.0.7) date 02/26/19 10:17:44*
%MOMM*%
%LPD*%
G01*
G04 APERTURE LIST*
%ADD10C,0.150000*%
%ADD11C,1.397000*%
%ADD12R,1.397000X1.397000*%
%ADD13C,4.064000*%
%ADD14C,4.000000*%
%ADD15C,4.500000*%
%ADD16C,1.524000*%
%ADD17R,1.778000X1.778000*%
%ADD18C,1.778000*%
%ADD19R,1.490980X1.490980*%
%ADD20C,1.490980*%
G04 APERTURE END LIST*
D10*
D11*
X90170000Y-113030000D03*
X82550000Y-113030000D03*
X82550000Y-120650000D03*
X90170000Y-120650000D03*
X90170000Y-82550000D03*
X82550000Y-82550000D03*
X82550000Y-90170000D03*
X90170000Y-90170000D03*
X172720000Y-76200000D03*
X172720000Y-68580000D03*
X175260000Y-76200000D03*
X175260000Y-68580000D03*
X149225000Y-133350000D03*
X149225000Y-140970000D03*
X146685000Y-140970000D03*
X146685000Y-133350000D03*
X170180000Y-76200000D03*
X170180000Y-68580000D03*
X173355000Y-127000000D03*
X173355000Y-134620000D03*
X170815000Y-127000000D03*
X170815000Y-134620000D03*
X81280000Y-87630000D03*
X81280000Y-85090000D03*
X91440000Y-87630000D03*
X91440000Y-85090000D03*
X81280000Y-118110000D03*
X81280000Y-115570000D03*
X91440000Y-118110000D03*
X91440000Y-115570000D03*
D12*
X124460000Y-60960000D03*
D11*
X127000000Y-60960000D03*
X129540000Y-60960000D03*
X132080000Y-60960000D03*
X134620000Y-60960000D03*
X137160000Y-60960000D03*
X139700000Y-60960000D03*
X142240000Y-60960000D03*
X142240000Y-53340000D03*
X139700000Y-53340000D03*
X137160000Y-53340000D03*
X134620000Y-53340000D03*
X132080000Y-53340000D03*
X129540000Y-53340000D03*
X127000000Y-53340000D03*
X124460000Y-53340000D03*
D12*
X124460000Y-149860000D03*
D11*
X127000000Y-149860000D03*
X129540000Y-149860000D03*
X132080000Y-149860000D03*
X134620000Y-149860000D03*
X137160000Y-149860000D03*
X139700000Y-149860000D03*
X142240000Y-149860000D03*
X142240000Y-142240000D03*
X139700000Y-142240000D03*
X137160000Y-142240000D03*
X134620000Y-142240000D03*
X132080000Y-142240000D03*
X129540000Y-142240000D03*
X127000000Y-142240000D03*
X124460000Y-142240000D03*
D12*
X124460000Y-124460000D03*
D11*
X127000000Y-124460000D03*
X129540000Y-124460000D03*
X132080000Y-124460000D03*
X134620000Y-124460000D03*
X137160000Y-124460000D03*
X139700000Y-124460000D03*
X142240000Y-124460000D03*
X142240000Y-116840000D03*
X139700000Y-116840000D03*
X137160000Y-116840000D03*
X134620000Y-116840000D03*
X132080000Y-116840000D03*
X129540000Y-116840000D03*
X127000000Y-116840000D03*
X124460000Y-116840000D03*
D12*
X124460000Y-111760000D03*
D11*
X127000000Y-111760000D03*
X129540000Y-111760000D03*
X132080000Y-111760000D03*
X134620000Y-111760000D03*
X137160000Y-111760000D03*
X139700000Y-111760000D03*
X142240000Y-111760000D03*
X142240000Y-104140000D03*
X139700000Y-104140000D03*
X137160000Y-104140000D03*
X134620000Y-104140000D03*
X132080000Y-104140000D03*
X129540000Y-104140000D03*
X127000000Y-104140000D03*
X124460000Y-104140000D03*
D12*
X124460000Y-99060000D03*
D11*
X127000000Y-99060000D03*
X129540000Y-99060000D03*
X132080000Y-99060000D03*
X134620000Y-99060000D03*
X137160000Y-99060000D03*
X139700000Y-99060000D03*
X142240000Y-99060000D03*
X142240000Y-91440000D03*
X139700000Y-91440000D03*
X137160000Y-91440000D03*
X134620000Y-91440000D03*
X132080000Y-91440000D03*
X129540000Y-91440000D03*
X127000000Y-91440000D03*
X124460000Y-91440000D03*
D12*
X124460000Y-86360000D03*
D11*
X127000000Y-86360000D03*
X129540000Y-86360000D03*
X132080000Y-86360000D03*
X134620000Y-86360000D03*
X137160000Y-86360000D03*
X139700000Y-86360000D03*
X142240000Y-86360000D03*
X142240000Y-78740000D03*
X139700000Y-78740000D03*
X137160000Y-78740000D03*
X134620000Y-78740000D03*
X132080000Y-78740000D03*
X129540000Y-78740000D03*
X127000000Y-78740000D03*
X124460000Y-78740000D03*
D12*
X124460000Y-73660000D03*
D11*
X127000000Y-73660000D03*
X129540000Y-73660000D03*
X132080000Y-73660000D03*
X134620000Y-73660000D03*
X137160000Y-73660000D03*
X139700000Y-73660000D03*
X142240000Y-73660000D03*
X142240000Y-66040000D03*
X139700000Y-66040000D03*
X137160000Y-66040000D03*
X134620000Y-66040000D03*
X132080000Y-66040000D03*
X129540000Y-66040000D03*
X127000000Y-66040000D03*
X124460000Y-66040000D03*
D12*
X101600000Y-73660000D03*
D11*
X104140000Y-73660000D03*
X106680000Y-73660000D03*
X109220000Y-73660000D03*
X111760000Y-73660000D03*
X114300000Y-73660000D03*
X116840000Y-73660000D03*
X116840000Y-66040000D03*
X114300000Y-66040000D03*
X111760000Y-66040000D03*
X109220000Y-66040000D03*
X106680000Y-66040000D03*
X104140000Y-66040000D03*
X101600000Y-66040000D03*
D12*
X101600000Y-60960000D03*
D11*
X104140000Y-60960000D03*
X106680000Y-60960000D03*
X109220000Y-60960000D03*
X111760000Y-60960000D03*
X114300000Y-60960000D03*
X116840000Y-60960000D03*
X116840000Y-53340000D03*
X114300000Y-53340000D03*
X111760000Y-53340000D03*
X109220000Y-53340000D03*
X106680000Y-53340000D03*
X104140000Y-53340000D03*
X101600000Y-53340000D03*
D12*
X101600000Y-86360000D03*
D11*
X104140000Y-86360000D03*
X106680000Y-86360000D03*
X109220000Y-86360000D03*
X111760000Y-86360000D03*
X114300000Y-86360000D03*
X116840000Y-86360000D03*
X116840000Y-78740000D03*
X114300000Y-78740000D03*
X111760000Y-78740000D03*
X109220000Y-78740000D03*
X106680000Y-78740000D03*
X104140000Y-78740000D03*
X101600000Y-78740000D03*
D12*
X101600000Y-99060000D03*
D11*
X104140000Y-99060000D03*
X106680000Y-99060000D03*
X109220000Y-99060000D03*
X111760000Y-99060000D03*
X114300000Y-99060000D03*
X116840000Y-99060000D03*
X116840000Y-91440000D03*
X114300000Y-91440000D03*
X111760000Y-91440000D03*
X109220000Y-91440000D03*
X106680000Y-91440000D03*
X104140000Y-91440000D03*
X101600000Y-91440000D03*
D12*
X101600000Y-111760000D03*
D11*
X104140000Y-111760000D03*
X106680000Y-111760000D03*
X109220000Y-111760000D03*
X111760000Y-111760000D03*
X114300000Y-111760000D03*
X116840000Y-111760000D03*
X116840000Y-104140000D03*
X114300000Y-104140000D03*
X111760000Y-104140000D03*
X109220000Y-104140000D03*
X106680000Y-104140000D03*
X104140000Y-104140000D03*
X101600000Y-104140000D03*
D12*
X101600000Y-124460000D03*
D11*
X104140000Y-124460000D03*
X106680000Y-124460000D03*
X109220000Y-124460000D03*
X111760000Y-124460000D03*
X114300000Y-124460000D03*
X116840000Y-124460000D03*
X116840000Y-116840000D03*
X114300000Y-116840000D03*
X111760000Y-116840000D03*
X109220000Y-116840000D03*
X106680000Y-116840000D03*
X104140000Y-116840000D03*
X101600000Y-116840000D03*
D12*
X124460000Y-137160000D03*
D11*
X127000000Y-137160000D03*
X129540000Y-137160000D03*
X132080000Y-137160000D03*
X134620000Y-137160000D03*
X137160000Y-137160000D03*
X139700000Y-137160000D03*
X139700000Y-129540000D03*
X137160000Y-129540000D03*
X134620000Y-129540000D03*
X132080000Y-129540000D03*
X129540000Y-129540000D03*
X127000000Y-129540000D03*
X124460000Y-129540000D03*
D12*
X101600000Y-149860000D03*
D11*
X104140000Y-149860000D03*
X106680000Y-149860000D03*
X109220000Y-149860000D03*
X111760000Y-149860000D03*
X114300000Y-149860000D03*
X116840000Y-149860000D03*
X116840000Y-142240000D03*
X114300000Y-142240000D03*
X111760000Y-142240000D03*
X109220000Y-142240000D03*
X106680000Y-142240000D03*
X104140000Y-142240000D03*
X101600000Y-142240000D03*
D12*
X101600000Y-137160000D03*
D11*
X104140000Y-137160000D03*
X106680000Y-137160000D03*
X109220000Y-137160000D03*
X111760000Y-137160000D03*
X114300000Y-137160000D03*
X116840000Y-137160000D03*
X116840000Y-129540000D03*
X114300000Y-129540000D03*
X111760000Y-129540000D03*
X109220000Y-129540000D03*
X106680000Y-129540000D03*
X104140000Y-129540000D03*
X101600000Y-129540000D03*
D12*
X149860000Y-124460000D03*
D11*
X152400000Y-124460000D03*
X154940000Y-124460000D03*
X157480000Y-124460000D03*
X160020000Y-124460000D03*
X162560000Y-124460000D03*
X165100000Y-124460000D03*
X165100000Y-116840000D03*
X162560000Y-116840000D03*
X160020000Y-116840000D03*
X157480000Y-116840000D03*
X154940000Y-116840000D03*
X152400000Y-116840000D03*
X149860000Y-116840000D03*
D12*
X149860000Y-111760000D03*
D11*
X152400000Y-111760000D03*
X154940000Y-111760000D03*
X157480000Y-111760000D03*
X160020000Y-111760000D03*
X162560000Y-111760000D03*
X165100000Y-111760000D03*
X165100000Y-104140000D03*
X162560000Y-104140000D03*
X160020000Y-104140000D03*
X157480000Y-104140000D03*
X154940000Y-104140000D03*
X152400000Y-104140000D03*
X149860000Y-104140000D03*
D12*
X149860000Y-99060000D03*
D11*
X152400000Y-99060000D03*
X154940000Y-99060000D03*
X157480000Y-99060000D03*
X160020000Y-99060000D03*
X162560000Y-99060000D03*
X165100000Y-99060000D03*
X165100000Y-91440000D03*
X162560000Y-91440000D03*
X160020000Y-91440000D03*
X157480000Y-91440000D03*
X154940000Y-91440000D03*
X152400000Y-91440000D03*
X149860000Y-91440000D03*
D12*
X149860000Y-86360000D03*
D11*
X152400000Y-86360000D03*
X154940000Y-86360000D03*
X157480000Y-86360000D03*
X160020000Y-86360000D03*
X162560000Y-86360000D03*
X165100000Y-86360000D03*
X165100000Y-78740000D03*
X162560000Y-78740000D03*
X160020000Y-78740000D03*
X157480000Y-78740000D03*
X154940000Y-78740000D03*
X152400000Y-78740000D03*
X149860000Y-78740000D03*
D12*
X149860000Y-73660000D03*
D11*
X152400000Y-73660000D03*
X154940000Y-73660000D03*
X157480000Y-73660000D03*
X160020000Y-73660000D03*
X162560000Y-73660000D03*
X165100000Y-73660000D03*
X165100000Y-66040000D03*
X162560000Y-66040000D03*
X160020000Y-66040000D03*
X157480000Y-66040000D03*
X154940000Y-66040000D03*
X152400000Y-66040000D03*
X149860000Y-66040000D03*
D12*
X149860000Y-60960000D03*
D11*
X152400000Y-60960000D03*
X154940000Y-60960000D03*
X157480000Y-60960000D03*
X160020000Y-60960000D03*
X162560000Y-60960000D03*
X165100000Y-60960000D03*
X165100000Y-53340000D03*
X162560000Y-53340000D03*
X160020000Y-53340000D03*
X157480000Y-53340000D03*
X154940000Y-53340000D03*
X152400000Y-53340000D03*
X149860000Y-53340000D03*
D13*
X81280000Y-147320000D03*
X172720000Y-55880000D03*
X172720000Y-147320000D03*
X81280000Y-55880000D03*
D14*
X163600000Y-144000000D03*
D15*
X163600000Y-137799860D03*
D14*
X168400600Y-141000260D03*
D11*
X146685000Y-143510000D03*
X146685000Y-148590000D03*
D16*
X153670000Y-143510000D03*
X153670000Y-148590000D03*
D12*
X78740000Y-69850000D03*
D11*
X81280000Y-69850000D03*
X83820000Y-69850000D03*
X86360000Y-69850000D03*
X88900000Y-69850000D03*
X91440000Y-69850000D03*
X93980000Y-69850000D03*
X93980000Y-62230000D03*
X91440000Y-62230000D03*
X88900000Y-62230000D03*
X86360000Y-62230000D03*
X83820000Y-62230000D03*
X81280000Y-62230000D03*
X78740000Y-62230000D03*
D12*
X78740000Y-140970000D03*
D11*
X81280000Y-140970000D03*
X83820000Y-140970000D03*
X86360000Y-140970000D03*
X88900000Y-140970000D03*
X91440000Y-140970000D03*
X93980000Y-140970000D03*
X93980000Y-133350000D03*
X91440000Y-133350000D03*
X88900000Y-133350000D03*
X86360000Y-133350000D03*
X83820000Y-133350000D03*
X81280000Y-133350000D03*
X78740000Y-133350000D03*
D12*
X78740000Y-80010000D03*
D11*
X81280000Y-80010000D03*
X83820000Y-80010000D03*
X86360000Y-80010000D03*
X88900000Y-80010000D03*
X91440000Y-80010000D03*
X93980000Y-80010000D03*
X93980000Y-72390000D03*
X91440000Y-72390000D03*
X88900000Y-72390000D03*
X86360000Y-72390000D03*
X83820000Y-72390000D03*
X81280000Y-72390000D03*
X78740000Y-72390000D03*
D12*
X78740000Y-100330000D03*
D11*
X81280000Y-100330000D03*
X83820000Y-100330000D03*
X86360000Y-100330000D03*
X88900000Y-100330000D03*
X91440000Y-100330000D03*
X93980000Y-100330000D03*
X93980000Y-92710000D03*
X91440000Y-92710000D03*
X88900000Y-92710000D03*
X86360000Y-92710000D03*
X83820000Y-92710000D03*
X81280000Y-92710000D03*
X78740000Y-92710000D03*
D12*
X78740000Y-110490000D03*
D11*
X81280000Y-110490000D03*
X83820000Y-110490000D03*
X86360000Y-110490000D03*
X88900000Y-110490000D03*
X91440000Y-110490000D03*
X93980000Y-110490000D03*
X93980000Y-102870000D03*
X91440000Y-102870000D03*
X88900000Y-102870000D03*
X86360000Y-102870000D03*
X83820000Y-102870000D03*
X81280000Y-102870000D03*
X78740000Y-102870000D03*
D12*
X78740000Y-130810000D03*
D11*
X81280000Y-130810000D03*
X83820000Y-130810000D03*
X86360000Y-130810000D03*
X88900000Y-130810000D03*
X91440000Y-130810000D03*
X93980000Y-130810000D03*
X93980000Y-123190000D03*
X91440000Y-123190000D03*
X88900000Y-123190000D03*
X86360000Y-123190000D03*
X83820000Y-123190000D03*
X81280000Y-123190000D03*
X78740000Y-123190000D03*
D17*
X172720000Y-91440000D03*
D18*
X172720000Y-86360000D03*
X172720000Y-81280000D03*
D17*
X172720000Y-106680000D03*
D18*
X172720000Y-101600000D03*
X172720000Y-96520000D03*
D17*
X172720000Y-121920000D03*
D18*
X172720000Y-116840000D03*
X172720000Y-111760000D03*
D19*
X162829240Y-130810000D03*
D20*
X164830760Y-130810000D03*
D11*
X120650000Y-91440000D03*
X120650000Y-99060000D03*
X120650000Y-142240000D03*
X120650000Y-149860000D03*
X97790000Y-129540000D03*
X97790000Y-137160000D03*
X120650000Y-129540000D03*
X120650000Y-137160000D03*
X97790000Y-142240000D03*
X97790000Y-149860000D03*
X120650000Y-66040000D03*
X120650000Y-73660000D03*
X120650000Y-78740000D03*
X120650000Y-86360000D03*
X146050000Y-111760000D03*
X146050000Y-104140000D03*
X120650000Y-104140000D03*
X120650000Y-111760000D03*
X120650000Y-116840000D03*
X120650000Y-124460000D03*
X146050000Y-60960000D03*
X146050000Y-53340000D03*
X146050000Y-73660000D03*
X146050000Y-66040000D03*
X146050000Y-86360000D03*
X146050000Y-78740000D03*
X146050000Y-99060000D03*
X146050000Y-91440000D03*
X146050000Y-124460000D03*
X146050000Y-116840000D03*
X120650000Y-53340000D03*
X120650000Y-60960000D03*
X154940000Y-140970000D03*
X152400000Y-140970000D03*
X154940000Y-135890000D03*
X152400000Y-135890000D03*
M02*
